<svg width="103" height="24" viewBox="0 0 103 24" fill="none" xmlns="http://www.w3.org/2000/svg">
<g id="Group 291">
<g id="Group 209">
<path id="Path 16" d="M12.999 8.99996H17.499L16.999 11H12.999V20H10.999V11H6.99902V8.99996H10.999V7.12796C10.8919 6.07113 11.0766 5.00515 11.533 4.04596C11.874 3.40177 12.4008 2.87497 13.045 2.53396C14.0042 2.07752 15.0702 1.89282 16.127 1.99996C16.5888 1.99311 17.0496 2.04349 17.499 2.14996V3.99996H16.127C15.4004 3.91088 14.6631 4.01433 13.989 4.29996C13.6928 4.45415 13.4512 4.69575 13.297 4.99196C13.0124 5.6656 12.9097 6.40215 12.999 7.12796V8.99996Z" fill="white"/>
</g>
<path id="Path 17" d="M62.999 3.01103C62.0414 3.68651 60.9811 4.20314 59.859 4.54103C59.2568 3.84854 58.4564 3.35772 57.5661 3.13496C56.6758 2.91219 55.7385 2.96823 54.8811 3.29549C54.0237 3.62274 53.2875 4.20543 52.772 4.96475C52.2565 5.72406 51.9867 6.62337 51.999 7.54103V8.54103C50.2417 8.5866 48.5003 8.19685 46.93 7.40648C45.3598 6.61611 44.0093 5.44967 42.999 4.01103C42.999 4.01103 38.999 13.011 47.999 17.011C45.9396 18.409 43.4862 19.11 40.999 19.011C49.999 24.011 60.999 19.011 60.999 7.51103C60.9981 7.23249 60.9713 6.95463 60.919 6.68103C61.9396 5.67453 62.6599 4.40375 62.999 3.01103V3.01103Z" stroke="white" stroke-width="1.2" stroke-linecap="round" stroke-linejoin="round"/>
<g id="Group 210">
<path id="Path 18" d="M101.54 5.42C101.421 4.94541 101.179 4.51057 100.839 4.15941C100.498 3.80824 100.071 3.55318 99.6 3.42C97.88 3 91 3 91 3C91 3 84.12 3 82.4 3.46C81.9292 3.59318 81.5019 3.84824 81.1613 4.19941C80.8207 4.55057 80.5787 4.98541 80.46 5.46C80.1452 7.20556 79.9912 8.97631 80 10.75C79.9887 12.537 80.1427 14.3213 80.46 16.08C80.5909 16.5398 80.8383 16.9581 81.1781 17.2945C81.5179 17.6308 81.9388 17.8738 82.4 18C84.12 18.46 91 18.46 91 18.46C91 18.46 97.88 18.46 99.6 18C100.071 17.8668 100.498 17.6118 100.839 17.2606C101.179 16.9094 101.421 16.4746 101.54 16C101.852 14.2676 102.006 12.5103 102 10.75C102.011 8.96295 101.857 7.1787 101.54 5.42V5.42Z" stroke="white" stroke-width="1.2" stroke-linecap="round" stroke-linejoin="round"/>
<path id="Path 19" d="M88.7499 14.02L94.4999 10.75L88.7499 7.47998V14.02Z" stroke="white" stroke-width="1.2" stroke-linecap="round" stroke-linejoin="round"/>
</g>
</g>
</svg>
