<svg xmlns="http://www.w3.org/2000/svg" aria-hidden="true" style="position:absolute;width:0;height:0;overflow:hidden">
  <defs>
    <symbol id="icon-category" viewBox="0 0 41 32">
      <path fill="none" stroke="#b19a8c" stroke-linecap="round" stroke-linejoin="round" stroke-width="3.2" d="m3.429 19.627 17.342 8.67 17.342-8.67M20.77 2.286l-17.342 8.67 17.342 8.672 17.342-8.67L20.77 2.286z" style="stroke:var(--color1, #b19a8c)"/>
    </symbol>
    <symbol id="icon-lens" viewBox="0 0 32 32">
      <path fill="none" stroke="#fff" stroke-linecap="round" stroke-linejoin="round" stroke-width="1.778" d="M14.222 27.259c7.2 0 13.037-5.837 13.037-13.037S21.422 1.185 14.222 1.185c-7.2 0-13.037 5.837-13.037 13.037s5.837 13.037 13.037 13.037zM30.409 30.815l-7.063-7.063" style="stroke:var(--color2, #fff)"/>
    </symbol>
    <symbol id="icon-menu" viewBox="0 0 54 32">
      <path d="M0.999756 1.00024H25.3396" stroke="white" stroke-width="1.5" stroke-linecap="round" />
                <path d="M0.997803 8.00024H10.0916" stroke="white" stroke-width="1.5" stroke-linecap="round" />
                <path d="M0.999756 15.0002H19.7302" stroke="white" stroke-width="1.5" stroke-linecap="round" />
    </symbol>
    <symbol id="icon-shop" viewBox="0 0 34 32">
      <path fill="none" stroke="#fff" stroke-linecap="round" stroke-linejoin="round" stroke-width="1.778" d="M20.939 14.354V7.77a6.585 6.585 0 0 0-13.168 0v6.585l13.169-.001zM2.831 11.061h23.046l1.646 19.753H1.185l1.646-19.753z" style="stroke:var(--color2, #fff)"/>
      <path fill="#f55" d="M34.37 10.074a6.519 6.519 0 1 0-13.038 0 6.519 6.519 0 0 0 13.038 0z" style="fill:var(--color6, #f55)"/>
    </symbol>
    <symbol id="icon-cross" viewBox="0 0 32 32">
      <path d="M32 3.224 28.776 0 16 12.776 3.224 0 0 3.224 12.776 16 0 28.776 3.224 32 16 19.224 28.776 32 32 28.776 19.224 16 32 3.224z"/>
    </symbol>
    <symbol id="icon-email" viewBox="0 0 24 32">
      <path d="M20 8H4c-1.1 0-1.99.9-1.99 2L2 22c0 1.1.9 2 2 2h16c1.1 0 2-.9 2-2V10c0-1.1-.9-2-2-2zm-.4 4.25-7.07 4.42c-.32.2-.74.2-1.06 0L4.4 12.25a.85.85 0 1 1 .9-1.44L12 15l6.7-4.19a.85.85 0 1 1 .9 1.44z"/>
    </symbol>
    <symbol id="icon-phone" viewBox="0 0 24 32">
      <path d="m19.635 18.487-2.451-.28a1.92 1.92 0 0 0-1.582.55l-1.775 1.775a14.514 14.514 0 0 1-6.359-6.359l1.785-1.785c.415-.415.618-.994.55-1.582l-.28-2.432a1.931 1.931 0 0 0-1.92-1.708H5.934c-1.09 0-1.997.907-1.93 1.997.511 8.24 7.102 14.821 15.332 15.332 1.09.068 1.997-.839 1.997-1.93v-1.669a1.913 1.913 0 0 0-1.698-1.911z"/>
    </symbol>
    <symbol id="icon-person" viewBox="0 0 32 32">
      <path fill="#4d5ae5" d="M16 16c2.947 0 5.333-2.387 5.333-5.333S18.946 5.334 16 5.334c-2.947 0-5.333 2.387-5.333 5.333S13.054 16 16 16zm0 2.667c-3.56 0-10.667 1.787-10.667 5.333v1.333c0 .733.6 1.333 1.333 1.333h18.667c.733 0 1.333-.6 1.333-1.333V24c0-3.547-7.107-5.333-10.667-5.333z" style="fill:var(--color7, #4d5ae5)"/>
    </symbol>
    <symbol id="arrow_red" viewBox="0 0 90 32">
<path fill="#ff6e6e" style="fill: var(--color1, #ff6e6e)" d="M1.247 16.95c0-0.418 0.333-0.819 0.924-1.114s1.395-0.462 2.232-0.462h74.42l-19.861-9.913c-0.305-0.145-0.549-0.319-0.717-0.512s-0.258-0.401-0.263-0.611c-0.005-0.21 0.074-0.419 0.233-0.614s0.394-0.372 0.692-0.521 0.652-0.266 1.043-0.346c0.39-0.079 0.809-0.119 1.23-0.116s0.838 0.047 1.224 0.131 0.735 0.206 1.026 0.358l25.244 12.604c0.293 0.146 0.526 0.32 0.685 0.512s0.241 0.396 0.241 0.604c0 0.207-0.082 0.412-0.241 0.604s-0.392 0.365-0.685 0.512l-25.244 12.604c-0.289 0.155-0.638 0.28-1.025 0.367s-0.806 0.133-1.231 0.137c-0.425 0.004-0.847-0.035-1.241-0.114s-0.752-0.197-1.052-0.347c-0.3-0.15-0.537-0.328-0.696-0.525s-0.237-0.407-0.229-0.619 0.101-0.421 0.274-0.615c0.173-0.194 0.423-0.368 0.734-0.512l19.861-9.913h-74.42c-0.415 0-0.825-0.041-1.209-0.12s-0.731-0.196-1.024-0.342c-0.293-0.146-0.526-0.32-0.684-0.512s-0.24-0.396-0.239-0.604z"></path>
</symbol>
<symbol id="icon-play" viewBox="0 0 32 32">
<path fill="#fff" style="fill: var(--color1, #fff)" d="M15.843 0c-3.133 0-6.196 0.929-8.802 2.67s-4.636 4.215-5.835 7.11-1.513 6.080-0.902 9.153c0.611 3.073 2.12 5.896 4.336 8.112s5.038 3.724 8.112 4.336 6.259 0.298 9.153-0.901c2.895-1.199 5.369-3.23 7.11-5.835s2.67-5.668 2.67-8.802c-0.005-4.2-1.675-8.227-4.645-11.197s-6.997-4.641-11.197-4.645zM15.843 28.517c-2.506 0-4.956-0.743-7.040-2.136s-3.708-3.371-4.667-5.687-1.21-4.863-0.721-7.322c0.489-2.458 1.696-4.716 3.468-6.488s4.030-2.979 6.488-3.468c2.458-0.489 5.006-0.238 7.322 0.721s4.295 2.583 5.687 4.667c1.392 2.084 2.136 4.534 2.136 7.040-0.004 3.36-1.341 6.58-3.716 8.956s-5.596 3.712-8.956 3.716z"></path>
<path fill="#fff" style="fill: var(--color1, #fff)" d="M11.090 23.764l12.672-7.921-12.672-7.921v15.843z"></path>
</symbol>
<symbol id="icon-footer-email" viewBox="0 0 39 32">
<path fill="none" stroke="#fff" style="stroke: var(--color1, #fff)" stroke-linejoin="round" stroke-linecap="round" stroke-miterlimit="4" stroke-width="2.1333" d="M5.831 1.778h28.444c0.942 0.003 1.845 0.378 2.511 1.044s1.042 1.569 1.044 2.511v21.333c-0.003 0.942-0.378 1.845-1.044 2.511s-1.569 1.042-2.511 1.044h-28.444c-0.942-0.003-1.845-0.378-2.511-1.044s-1.042-1.569-1.044-2.511v-21.333c0.003-0.942 0.378-1.845 1.045-2.511s1.569-1.042 2.511-1.044v0z"></path>
<path fill="none" stroke="#fff" style="stroke: var(--color1, #fff)" stroke-linejoin="round" stroke-linecap="round" stroke-miterlimit="4" stroke-width="2.1333" d="M37.831 5.333l-17.778 12.444-17.778-12.444"></path>
</symbol>
<symbol id="option" viewBox="0 0 32 32">
<path fill="#fff" style="fill: var(--color1, #fff)" opacity="0.2" d="M16 32c8.837 0 16-7.163 16-16s-7.163-16-16-16c-8.837 0-16 7.163-16 16s7.163 16 16 16z"></path>
</symbol>
<symbol id="option-selected" viewBox="0 0 69 32">
<path fill="#fff" style="fill: var(--color1, #fff)" d="M52.923 0h-36.923c-8.837 0-16 7.163-16 16s7.163 16 16 16h36.923c8.837 0 16-7.163 16-16s-7.163-16-16-16z"></path>
</symbol>
<symbol id="icon-facebook" viewBox="0 0 32 32">
<path fill="#fff" style="fill: var(--color1, #fff)" d="M17.332 12h6l-0.667 2.667h-5.333v12h-2.667v-12h-5.333v-2.667h5.333v-2.496c-0.143-1.409 0.103-2.83 0.712-4.109 0.455-0.859 1.157-1.561 2.016-2.016 1.279-0.609 2.7-0.855 4.109-0.712 0.616-0.009 1.23 0.058 1.829 0.2v2.467h-1.829c-0.969-0.119-1.952 0.019-2.851 0.4-0.395 0.206-0.717 0.528-0.923 0.923-0.379 0.898-0.516 1.88-0.397 2.848v2.496z"></path>
</symbol>
<symbol id="icon-twitter" viewBox="0 0 38 32">
<path fill="none" stroke="#fff" style="stroke: var(--color1, #fff)" stroke-linejoin="round" stroke-linecap="round" stroke-miterlimit="4" stroke-width="1.92" d="M36.798 1.618c-1.532 1.081-3.229 1.907-5.024 2.448-0.964-1.108-2.244-1.893-3.669-2.25s-2.924-0.267-4.296 0.257c-1.372 0.524-2.55 1.456-3.375 2.671s-1.256 2.654-1.237 4.122v1.6c-2.812 0.073-5.598-0.551-8.11-1.815s-4.673-3.131-6.29-5.433c0 0-6.4 14.4 8 20.8-3.295 2.237-7.221 3.358-11.2 3.2 14.4 8 32 0 32-18.4-0.001-0.446-0.044-0.89-0.128-1.328 1.633-1.61 2.785-3.644 3.328-5.872v0z"></path>
</symbol>
<symbol id="icon-youtube" viewBox="0 0 43 32">
<path fill="none" stroke="#fff" style="stroke: var(--color1, #fff)" stroke-linejoin="round" stroke-linecap="round" stroke-miterlimit="4" stroke-width="2.1333" d="M40.071 6.080c-0.211-0.844-0.641-1.617-1.247-2.241s-1.365-1.078-2.202-1.314c-3.058-0.747-15.289-0.747-15.289-0.747s-12.231 0-15.289 0.818c-0.837 0.237-1.596 0.69-2.202 1.315s-1.036 1.397-1.247 2.241c-0.56 3.103-0.833 6.251-0.818 9.404-0.020 3.177 0.254 6.349 0.818 9.476 0.233 0.817 0.673 1.561 1.277 2.159s1.352 1.030 2.172 1.254c3.058 0.818 15.289 0.818 15.289 0.818s12.231 0 15.289-0.818c0.837-0.237 1.596-0.69 2.202-1.314s1.036-1.397 1.247-2.241c0.555-3.080 0.829-6.204 0.818-9.333 0.020-3.177-0.254-6.349-0.818-9.476v0z"></path>
<path fill="none" stroke="#fff" style="stroke: var(--color1, #fff)" stroke-linejoin="round" stroke-linecap="round" stroke-miterlimit="4" stroke-width="2.1333" d="M17.333 21.369l10.222-5.813-10.222-5.813v11.627z"></path>
</symbol>

  </defs>
</svg>





